 <svg
            xmlns="http://www.w3.org/2000/svg"
            width="130"
            height="33"
            fill="none"
            viewBox="0 0 130 33"
            class="h-6 sm:h-10 w-20 sm:w-32"
          >
            <g clip-path="url(#a)">
              <path
                fill="#42C8B7"
                d="m45.693 10.881-2.114 2.573a5.753 5.753 0 0 0-4.162-2.09 4.95 4.95 0 0 0 0 9.898 6.185 6.185 0 0 0 4.162-1.884l2.13 2.318a9.346 9.346 0 0 1-6.464 2.868 8.138 8.138 0 0 1-7.669-4.785 8.07 8.07 0 0 1-.713-3.097v-.328a8.17 8.17 0 0 1 .631-3.121 8.017 8.017 0 0 1 1.778-2.638 8.258 8.258 0 0 1 2.655-1.762 8.025 8.025 0 0 1 3.121-.606c.115 0 .23 0 .344.008a8.986 8.986 0 0 1 6.3 2.646ZM50.847 21.305l-1.254 3.113h-3.728l6.948-16.059h3.728l6.825 16.059h-3.86l-1.253-3.113h-7.406Zm3.72-9.16-2.532 6.243h5.047l-2.516-6.243ZM76.18 9.35l-1.065 3.137a11.13 11.13 0 0 0-5.137-1.106c-1.204.131-1.975.647-1.884 1.516.31 2.941 8.619.393 9.209 6.145.335 3.13-2.196 5.104-5.72 5.481a11.214 11.214 0 0 1-7.3-1.786l1.123-3.097a9.399 9.399 0 0 0 5.9 1.794c1.474-.155 2.302-.803 2.203-1.786-.32-3.007-8.61-.344-9.217-6.014-.311-2.892 1.974-4.99 5.661-5.382a11.502 11.502 0 0 1 6.227 1.097ZM90.354 24.418v-6.325H83.11v6.325h-3.613V8.359h3.613v6.694h7.243V8.36h3.613v16.059h-3.613ZM99.62 8.375h-3.507v16.026h3.507V8.375ZM101.727 24.392h3.506v-5.94h6.252V14.93h-6.252v-3.023h7.104V8.383h-10.61v16.01ZM125.806 8.375l-4.056 6.251-4.113-6.251h-4.219l6.587 9.971v6.055h3.507v-6.063l6.489-9.963h-4.195ZM16.353 32.775C7.341 32.775 0 25.425 0 16.388S7.333.002 16.353.002c2.16-.009 4.3.418 6.293 1.254 1.993.835 3.8 2.057 5.317 3.596.23.23.41.503.533.803a2.456 2.456 0 0 1-.54 2.687 2.511 2.511 0 0 1-1.745.721 2.455 2.455 0 0 1-1.746-.729 11.354 11.354 0 0 0-8.103-3.383c-6.293 0-11.413 5.129-11.413 11.437 0 6.309 5.12 11.438 11.413 11.438a11.355 11.355 0 0 0 8.103-3.384 2.47 2.47 0 1 1 3.498 3.482 16.23 16.23 0 0 1-11.61 4.85Z"
              ></path>
              <path
                fill="#42C86B"
                fill-rule="evenodd"
                d="m21.368 15.16-1.508 1.515-2.572 2.581c-.64.64-1.049.697-1.688.05-.336-.337-.672-.68-1.008-1.017-.827-.827-1.68-1.687-2.515-2.523a1.621 1.621 0 0 1-.467-1.13 1.587 1.587 0 0 1 .467-1.123 1.608 1.608 0 0 1 1.04-.467h.099c.203 0 .404.041.59.123.187.082.356.198.5.344.344.336.688.68 1.024 1.024l1.09 1.098 4.464-4.49.18-.197c.132-.13.271-.262.402-.401l.033-.033a7.735 7.735 0 1 0 1.925 2.59c-.688.696-1.376 1.376-2.056 2.056Z"
                clip-rule="evenodd"
              ></path>
            </g>
            <defs>
              <clipPath id="a">
                <path fill="#fff" d="M0 0h130v32.773H0z"></path>
              </clipPath>
            </defs>
          </svg>